# xmcd
#
# Track frame offsets:
#	150
#	15241
#	28859
#	41878
#	57634
#	72122
#	86630
#	100527
#	114680
#	128747
#	143632
#	156391
#	174392
#
# Disc length: 2511 seconds
#
# Revision: 1
# Processed by: cddbd v1.5.2PL0 Copyright (c) Steve Scherf et al.
# Submitted via: audiograbber 1.83.01
#
DISCID=ac09cd0d
DTITLE=Tond Erics - Speilbilde
DYEAR=2006
DGENRE=
TTITLE0=Dag o natt
TTITLE1=Gamle Svarten
TTITLE2=Tag meg me
TTITLE3=Innen höstovet faller
TTITLE4=Gammalsången
TTITLE5=Hvem
TTITLE6=Er det greit
TTITLE7=Om det er sånn ekte kjärlighet er
TTITLE8=Ser etter Sara
TTITLE9=Engel utenn nåde
TTITLE10=Mer enn tusen ord
TTITLE11=Speilbilde
TTITLE12=söndag 06:55
EXTD=Produce by Lars Espen Skogvold Tylden and Co\nGTACD 8290
EXTT0=
EXTT1=
EXTT2=
EXTT3=
EXTT4=
EXTT5=
EXTT6=
EXTT7=
EXTT8=
EXTT9=
EXTT10=
EXTT11=
EXTT12=
PLAYORDER=
